<mxfile host="app.diagrams.net" modified="2023-12-17T23:23:37.179Z" agent="Mozilla/5.0 (Windows NT 10.0; Win64; x64) AppleWebKit/537.36 (KHTML, like Gecko) Chrome/120.0.0.0 Safari/537.36" etag="avfgHE32g86RZcl-bt1i" version="22.1.11" type="github">
  <diagram name="Page-1" id="13e1069c-82ec-6db2-03f1-153e76fe0fe0">
    <mxGraphModel dx="1843" dy="1657" grid="1" gridSize="10" guides="1" tooltips="1" connect="1" arrows="1" fold="1" page="1" pageScale="1" pageWidth="1100" pageHeight="850" background="none" math="0" shadow="0">
      <root>
        <mxCell id="0" />
        <mxCell id="1" parent="0" />
        <mxCell id="7baba1c4bc27f4b0-4" value="Надіслані" style="shape=umlLifeline;perimeter=lifelinePerimeter;whiteSpace=wrap;html=1;container=1;collapsible=0;recursiveResize=0;outlineConnect=0;rounded=1;shadow=0;comic=0;labelBackgroundColor=none;strokeWidth=1;fontFamily=Verdana;fontSize=12;align=center;" parent="1" vertex="1">
          <mxGeometry x="540" y="80" width="100" height="580" as="geometry" />
        </mxCell>
        <mxCell id="gJN-mxGq6mvan0Lc4Zg4-46" value="" style="html=1;points=[];perimeter=orthogonalPerimeter;rounded=0;shadow=0;comic=0;labelBackgroundColor=none;strokeWidth=1;fontFamily=Verdana;fontSize=12;align=center;" vertex="1" parent="7baba1c4bc27f4b0-4">
          <mxGeometry x="45" y="210" width="10" height="330" as="geometry" />
        </mxCell>
        <mxCell id="gJN-mxGq6mvan0Lc4Zg4-53" value="" style="html=1;points=[];perimeter=orthogonalPerimeter;rounded=0;shadow=0;comic=0;labelBackgroundColor=none;strokeWidth=1;fontFamily=Verdana;fontSize=12;align=center;" vertex="1" parent="7baba1c4bc27f4b0-4">
          <mxGeometry x="45" y="300" width="10" height="240" as="geometry" />
        </mxCell>
        <mxCell id="7baba1c4bc27f4b0-16" value="" style="html=1;points=[];perimeter=orthogonalPerimeter;rounded=0;shadow=0;comic=0;labelBackgroundColor=none;strokeWidth=1;fontFamily=Verdana;fontSize=12;align=center;" parent="1" vertex="1">
          <mxGeometry x="585" y="220" width="10" height="380" as="geometry" />
        </mxCell>
        <mxCell id="7baba1c4bc27f4b0-2" value="Вхідні" style="shape=umlLifeline;perimeter=lifelinePerimeter;whiteSpace=wrap;html=1;container=1;collapsible=0;recursiveResize=0;outlineConnect=0;rounded=1;shadow=0;comic=0;labelBackgroundColor=none;strokeWidth=1;fontFamily=Verdana;fontSize=12;align=center;" parent="1" vertex="1">
          <mxGeometry x="240" y="80" width="125" height="580" as="geometry" />
        </mxCell>
        <mxCell id="7baba1c4bc27f4b0-10" value="" style="html=1;points=[];perimeter=orthogonalPerimeter;rounded=0;shadow=0;comic=0;labelBackgroundColor=none;strokeWidth=1;fontFamily=Verdana;fontSize=12;align=center;" parent="7baba1c4bc27f4b0-2" vertex="1">
          <mxGeometry x="57.5" y="100" width="10" height="440" as="geometry" />
        </mxCell>
        <mxCell id="gJN-mxGq6mvan0Lc4Zg4-41" value="" style="html=1;points=[];perimeter=orthogonalPerimeter;rounded=0;shadow=0;comic=0;labelBackgroundColor=none;strokeWidth=1;fontFamily=Verdana;fontSize=12;align=center;" vertex="1" parent="7baba1c4bc27f4b0-2">
          <mxGeometry x="57.5" y="170" width="10" height="360" as="geometry" />
        </mxCell>
        <mxCell id="gJN-mxGq6mvan0Lc4Zg4-49" value="" style="html=1;points=[];perimeter=orthogonalPerimeter;rounded=0;shadow=0;comic=0;labelBackgroundColor=none;strokeWidth=1;fontFamily=Verdana;fontSize=12;align=center;" vertex="1" parent="7baba1c4bc27f4b0-2">
          <mxGeometry x="57.5" y="260" width="10" height="280" as="geometry" />
        </mxCell>
        <mxCell id="gJN-mxGq6mvan0Lc4Zg4-52" value="наряд експедитору&amp;nbsp;&lt;br&gt;+ наряд на видачу&lt;br&gt;+ наказ на &lt;br&gt;&lt;span style=&quot;white-space: pre;&quot;&gt;&#x9;&lt;/span&gt;відрядження&lt;br&gt;&lt;div style=&quot;&quot;&gt;&lt;span style=&quot;background-color: initial;&quot;&gt;+ інформацію про&amp;nbsp;&lt;/span&gt;&lt;/div&gt;&lt;div style=&quot;&quot;&gt;&lt;span style=&quot;background-color: initial;&quot;&gt;&lt;span style=&quot;white-space: pre;&quot;&gt;&#x9;&lt;/span&gt;виїзд&lt;/span&gt;&lt;/div&gt;" style="html=1;verticalAlign=bottom;endArrow=block;labelBackgroundColor=none;fontFamily=Verdana;fontSize=12;align=left;" edge="1" parent="7baba1c4bc27f4b0-2">
          <mxGeometry x="-0.9643" y="-90" relative="1" as="geometry">
            <mxPoint x="67.5" y="280" as="sourcePoint" />
            <mxPoint x="207.5" y="280" as="targetPoint" />
            <mxPoint as="offset" />
          </mxGeometry>
        </mxCell>
        <mxCell id="7baba1c4bc27f4b0-3" value="Створити" style="shape=umlLifeline;perimeter=lifelinePerimeter;whiteSpace=wrap;html=1;container=1;collapsible=0;recursiveResize=0;outlineConnect=0;rounded=1;shadow=0;comic=0;labelBackgroundColor=none;strokeWidth=1;fontFamily=Verdana;fontSize=12;align=center;" parent="1" vertex="1">
          <mxGeometry x="400" y="80" width="100" height="580" as="geometry" />
        </mxCell>
        <mxCell id="7baba1c4bc27f4b0-13" value="" style="html=1;points=[];perimeter=orthogonalPerimeter;rounded=0;shadow=0;comic=0;labelBackgroundColor=none;strokeWidth=1;fontFamily=Verdana;fontSize=12;align=center;" parent="7baba1c4bc27f4b0-3" vertex="1">
          <mxGeometry x="45" y="120" width="10" height="20" as="geometry" />
        </mxCell>
        <mxCell id="gJN-mxGq6mvan0Lc4Zg4-42" value="запит на &lt;br&gt;транспорту для &lt;br&gt;перевезення&lt;br&gt;&amp;nbsp;для озброєння у &lt;br&gt;начальника АС" style="html=1;verticalAlign=bottom;endArrow=block;labelBackgroundColor=none;fontFamily=Verdana;fontSize=12;align=left;" edge="1" parent="7baba1c4bc27f4b0-3" target="7baba1c4bc27f4b0-3">
          <mxGeometry x="-0.7133" y="-71" relative="1" as="geometry">
            <mxPoint x="-90" y="189" as="sourcePoint" />
            <mxPoint x="40" y="189" as="targetPoint" />
            <mxPoint as="offset" />
          </mxGeometry>
        </mxCell>
        <mxCell id="gJN-mxGq6mvan0Lc4Zg4-43" value="" style="html=1;points=[];perimeter=orthogonalPerimeter;rounded=0;shadow=0;comic=0;labelBackgroundColor=none;strokeWidth=1;fontFamily=Verdana;fontSize=12;align=center;" vertex="1" parent="7baba1c4bc27f4b0-3">
          <mxGeometry x="45" y="190" width="10" height="20" as="geometry" />
        </mxCell>
        <mxCell id="gJN-mxGq6mvan0Lc4Zg4-51" value="" style="html=1;points=[];perimeter=orthogonalPerimeter;rounded=0;shadow=0;comic=0;labelBackgroundColor=none;strokeWidth=1;fontFamily=Verdana;fontSize=12;align=center;" vertex="1" parent="7baba1c4bc27f4b0-3">
          <mxGeometry x="45" y="280" width="10" height="20" as="geometry" />
        </mxCell>
        <mxCell id="7baba1c4bc27f4b0-8" value="Головна сторінка" style="shape=umlLifeline;perimeter=lifelinePerimeter;whiteSpace=wrap;html=1;container=1;collapsible=0;recursiveResize=0;outlineConnect=0;rounded=1;shadow=0;comic=0;labelBackgroundColor=none;strokeWidth=1;fontFamily=Verdana;fontSize=12;align=center;" parent="1" vertex="1">
          <mxGeometry x="100" y="80" width="100" height="580" as="geometry" />
        </mxCell>
        <mxCell id="7baba1c4bc27f4b0-9" value="" style="html=1;points=[];perimeter=orthogonalPerimeter;rounded=0;shadow=0;comic=0;labelBackgroundColor=none;strokeWidth=1;fontFamily=Verdana;fontSize=12;align=center;" parent="7baba1c4bc27f4b0-8" vertex="1">
          <mxGeometry x="45" y="100" width="10" height="440" as="geometry" />
        </mxCell>
        <mxCell id="7baba1c4bc27f4b0-23" value="&lt;div style=&quot;text-align: left;&quot;&gt;&lt;span style=&quot;background-color: initial;&quot;&gt;отримати від&lt;/span&gt;&lt;/div&gt;&lt;div style=&quot;text-align: left;&quot;&gt;&lt;span style=&quot;background-color: initial;&quot;&gt;командира ВЧ&lt;/span&gt;&lt;/div&gt;&lt;div style=&quot;text-align: left;&quot;&gt;&lt;span style=&quot;background-color: initial;&quot;&gt;наказ&lt;/span&gt;&lt;/div&gt;на відрядження" style="html=1;verticalAlign=bottom;endArrow=block;labelBackgroundColor=none;fontFamily=Verdana;fontSize=12;" parent="7baba1c4bc27f4b0-8" edge="1">
          <mxGeometry x="0.0323" y="-60" relative="1" as="geometry">
            <mxPoint x="55" y="170" as="sourcePoint" />
            <mxPoint x="197.5" y="170" as="targetPoint" />
            <mxPoint as="offset" />
          </mxGeometry>
        </mxCell>
        <mxCell id="gJN-mxGq6mvan0Lc4Zg4-50" value="отримати від &lt;br&gt;начальника АС&lt;br&gt;узгодження&lt;br&gt;на видачу авто&lt;br&gt;+ інформацію &lt;br&gt;про виїзд" style="html=1;verticalAlign=bottom;endArrow=block;labelBackgroundColor=none;fontFamily=Verdana;fontSize=12;align=left;" edge="1" parent="7baba1c4bc27f4b0-8">
          <mxGeometry x="-0.7895" y="-90" relative="1" as="geometry">
            <mxPoint x="55" y="260" as="sourcePoint" />
            <mxPoint x="197.5" y="260" as="targetPoint" />
            <mxPoint as="offset" />
          </mxGeometry>
        </mxCell>
        <mxCell id="7baba1c4bc27f4b0-17" value="надіслати &lt;br&gt;рапорт" style="html=1;verticalAlign=bottom;endArrow=block;labelBackgroundColor=none;fontFamily=Verdana;fontSize=12;edgeStyle=elbowEdgeStyle;elbow=vertical;align=left;" parent="1" source="7baba1c4bc27f4b0-13" target="7baba1c4bc27f4b0-16" edge="1">
          <mxGeometry x="-0.6154" relative="1" as="geometry">
            <mxPoint x="510" y="220" as="sourcePoint" />
            <Array as="points">
              <mxPoint x="460" y="220" />
            </Array>
            <mxPoint as="offset" />
          </mxGeometry>
        </mxCell>
        <mxCell id="7baba1c4bc27f4b0-11" value="отримати наряд &lt;br&gt;на надходження&lt;br&gt;&amp;nbsp;зброї" style="html=1;verticalAlign=bottom;endArrow=block;entryX=0;entryY=0;labelBackgroundColor=none;fontFamily=Verdana;fontSize=12;edgeStyle=elbowEdgeStyle;elbow=vertical;align=left;" parent="1" source="7baba1c4bc27f4b0-9" target="7baba1c4bc27f4b0-10" edge="1">
          <mxGeometry x="-0.7897" relative="1" as="geometry">
            <mxPoint x="220" y="190" as="sourcePoint" />
            <mxPoint as="offset" />
          </mxGeometry>
        </mxCell>
        <mxCell id="7baba1c4bc27f4b0-14" value="створити &lt;br&gt;рапорт командиру &lt;br&gt;ВЧ на відрядження" style="html=1;verticalAlign=bottom;endArrow=block;entryX=0;entryY=0;labelBackgroundColor=none;fontFamily=Verdana;fontSize=12;edgeStyle=elbowEdgeStyle;elbow=vertical;align=left;" parent="1" source="7baba1c4bc27f4b0-10" target="7baba1c4bc27f4b0-13" edge="1">
          <mxGeometry x="-0.8183" relative="1" as="geometry">
            <mxPoint x="370" y="200" as="sourcePoint" />
            <mxPoint as="offset" />
          </mxGeometry>
        </mxCell>
        <mxCell id="7baba1c4bc27f4b0-40" value="Начальник служби РАО" style="shape=note;whiteSpace=wrap;html=1;size=14;verticalAlign=top;align=left;spacingTop=-6;rounded=0;shadow=0;comic=0;labelBackgroundColor=none;strokeWidth=1;fontFamily=Verdana;fontSize=12" parent="1" vertex="1">
          <mxGeometry x="100" y="30" width="100" height="35" as="geometry" />
        </mxCell>
        <mxCell id="gJN-mxGq6mvan0Lc4Zg4-1" value=":Object" style="shape=umlLifeline;perimeter=lifelinePerimeter;whiteSpace=wrap;html=1;container=1;collapsible=0;recursiveResize=0;outlineConnect=0;rounded=1;shadow=0;comic=0;labelBackgroundColor=none;strokeWidth=1;fontFamily=Verdana;fontSize=12;align=center;" vertex="1" parent="1">
          <mxGeometry x="1610" y="60" width="100" height="580" as="geometry" />
        </mxCell>
        <mxCell id="gJN-mxGq6mvan0Lc4Zg4-2" value="" style="html=1;points=[];perimeter=orthogonalPerimeter;rounded=0;shadow=0;comic=0;labelBackgroundColor=none;strokeWidth=1;fontFamily=Verdana;fontSize=12;align=center;" vertex="1" parent="gJN-mxGq6mvan0Lc4Zg4-1">
          <mxGeometry x="45" y="100" width="10" height="230" as="geometry" />
        </mxCell>
        <mxCell id="gJN-mxGq6mvan0Lc4Zg4-3" value=":Object" style="shape=umlLifeline;perimeter=lifelinePerimeter;whiteSpace=wrap;html=1;container=1;collapsible=0;recursiveResize=0;outlineConnect=0;rounded=1;shadow=0;comic=0;labelBackgroundColor=none;strokeWidth=1;fontFamily=Verdana;fontSize=12;align=center;" vertex="1" parent="1">
          <mxGeometry x="1770" y="60" width="100" height="580" as="geometry" />
        </mxCell>
        <mxCell id="gJN-mxGq6mvan0Lc4Zg4-4" value="" style="html=1;points=[];perimeter=orthogonalPerimeter;rounded=0;shadow=0;comic=0;labelBackgroundColor=none;strokeWidth=1;fontFamily=Verdana;fontSize=12;align=center;" vertex="1" parent="gJN-mxGq6mvan0Lc4Zg4-3">
          <mxGeometry x="45" y="120" width="10" height="200" as="geometry" />
        </mxCell>
        <mxCell id="gJN-mxGq6mvan0Lc4Zg4-5" value=":Object" style="shape=umlLifeline;perimeter=lifelinePerimeter;whiteSpace=wrap;html=1;container=1;collapsible=0;recursiveResize=0;outlineConnect=0;rounded=1;shadow=0;comic=0;labelBackgroundColor=none;strokeWidth=1;fontFamily=Verdana;fontSize=12;align=center;" vertex="1" parent="1">
          <mxGeometry x="1910" y="60" width="100" height="580" as="geometry" />
        </mxCell>
        <mxCell id="gJN-mxGq6mvan0Lc4Zg4-6" value=":Object" style="shape=umlLifeline;perimeter=lifelinePerimeter;whiteSpace=wrap;html=1;container=1;collapsible=0;recursiveResize=0;outlineConnect=0;rounded=1;shadow=0;comic=0;labelBackgroundColor=none;strokeWidth=1;fontFamily=Verdana;fontSize=12;align=center;" vertex="1" parent="1">
          <mxGeometry x="2050" y="60" width="100" height="580" as="geometry" />
        </mxCell>
        <mxCell id="gJN-mxGq6mvan0Lc4Zg4-7" value=":Object" style="shape=umlLifeline;perimeter=lifelinePerimeter;whiteSpace=wrap;html=1;container=1;collapsible=0;recursiveResize=0;outlineConnect=0;rounded=1;shadow=0;comic=0;labelBackgroundColor=none;strokeWidth=1;fontFamily=Verdana;fontSize=12;align=center;" vertex="1" parent="1">
          <mxGeometry x="2190" y="60" width="100" height="580" as="geometry" />
        </mxCell>
        <mxCell id="gJN-mxGq6mvan0Lc4Zg4-8" value=":Object" style="shape=umlLifeline;perimeter=lifelinePerimeter;whiteSpace=wrap;html=1;container=1;collapsible=0;recursiveResize=0;outlineConnect=0;rounded=1;shadow=0;comic=0;labelBackgroundColor=none;strokeWidth=1;fontFamily=Verdana;fontSize=12;align=center;" vertex="1" parent="1">
          <mxGeometry x="2330" y="60" width="100" height="580" as="geometry" />
        </mxCell>
        <mxCell id="gJN-mxGq6mvan0Lc4Zg4-9" value=":Object" style="shape=umlLifeline;perimeter=lifelinePerimeter;whiteSpace=wrap;html=1;container=1;collapsible=0;recursiveResize=0;outlineConnect=0;rounded=1;shadow=0;comic=0;labelBackgroundColor=none;strokeWidth=1;fontFamily=Verdana;fontSize=12;align=center;" vertex="1" parent="1">
          <mxGeometry x="1470" y="60" width="100" height="580" as="geometry" />
        </mxCell>
        <mxCell id="gJN-mxGq6mvan0Lc4Zg4-10" value="" style="html=1;points=[];perimeter=orthogonalPerimeter;rounded=0;shadow=0;comic=0;labelBackgroundColor=none;strokeWidth=1;fontFamily=Verdana;fontSize=12;align=center;" vertex="1" parent="gJN-mxGq6mvan0Lc4Zg4-9">
          <mxGeometry x="45" y="100" width="10" height="440" as="geometry" />
        </mxCell>
        <mxCell id="gJN-mxGq6mvan0Lc4Zg4-11" value="" style="html=1;points=[];perimeter=orthogonalPerimeter;rounded=0;shadow=0;comic=0;labelBackgroundColor=none;strokeWidth=1;fontFamily=Verdana;fontSize=12;align=center;" vertex="1" parent="1">
          <mxGeometry x="1955" y="200" width="10" height="180" as="geometry" />
        </mxCell>
        <mxCell id="gJN-mxGq6mvan0Lc4Zg4-12" value="dispatch" style="html=1;verticalAlign=bottom;endArrow=block;labelBackgroundColor=none;fontFamily=Verdana;fontSize=12;edgeStyle=elbowEdgeStyle;elbow=vertical;" edge="1" parent="1" source="gJN-mxGq6mvan0Lc4Zg4-4" target="gJN-mxGq6mvan0Lc4Zg4-11">
          <mxGeometry relative="1" as="geometry">
            <mxPoint x="1880" y="200" as="sourcePoint" />
            <Array as="points">
              <mxPoint x="1830" y="200" />
            </Array>
          </mxGeometry>
        </mxCell>
        <mxCell id="gJN-mxGq6mvan0Lc4Zg4-13" value="" style="html=1;points=[];perimeter=orthogonalPerimeter;rounded=0;shadow=0;comic=0;labelBackgroundColor=none;strokeWidth=1;fontFamily=Verdana;fontSize=12;align=center;" vertex="1" parent="1">
          <mxGeometry x="2095" y="210" width="10" height="40" as="geometry" />
        </mxCell>
        <mxCell id="gJN-mxGq6mvan0Lc4Zg4-14" value="dispatch" style="html=1;verticalAlign=bottom;endArrow=block;entryX=0;entryY=0;labelBackgroundColor=none;fontFamily=Verdana;fontSize=12;edgeStyle=elbowEdgeStyle;elbow=vertical;" edge="1" parent="1" source="gJN-mxGq6mvan0Lc4Zg4-11" target="gJN-mxGq6mvan0Lc4Zg4-13">
          <mxGeometry relative="1" as="geometry">
            <mxPoint x="2020" y="210" as="sourcePoint" />
          </mxGeometry>
        </mxCell>
        <mxCell id="gJN-mxGq6mvan0Lc4Zg4-15" value="return" style="html=1;verticalAlign=bottom;endArrow=open;dashed=1;endSize=8;labelBackgroundColor=none;fontFamily=Verdana;fontSize=12;edgeStyle=elbowEdgeStyle;elbow=vertical;" edge="1" parent="1" source="gJN-mxGq6mvan0Lc4Zg4-13" target="gJN-mxGq6mvan0Lc4Zg4-11">
          <mxGeometry relative="1" as="geometry">
            <mxPoint x="2020" y="286" as="targetPoint" />
            <Array as="points">
              <mxPoint x="2040" y="240" />
              <mxPoint x="2070" y="240" />
            </Array>
          </mxGeometry>
        </mxCell>
        <mxCell id="gJN-mxGq6mvan0Lc4Zg4-16" value="" style="html=1;points=[];perimeter=orthogonalPerimeter;rounded=0;shadow=0;comic=0;labelBackgroundColor=none;strokeWidth=1;fontFamily=Verdana;fontSize=12;align=center;" vertex="1" parent="1">
          <mxGeometry x="1955" y="420" width="10" height="140" as="geometry" />
        </mxCell>
        <mxCell id="gJN-mxGq6mvan0Lc4Zg4-17" value="dispatch" style="html=1;verticalAlign=bottom;endArrow=block;entryX=0;entryY=0;labelBackgroundColor=none;fontFamily=Verdana;fontSize=12;" edge="1" parent="1" source="gJN-mxGq6mvan0Lc4Zg4-10" target="gJN-mxGq6mvan0Lc4Zg4-16">
          <mxGeometry relative="1" as="geometry">
            <mxPoint x="1880" y="400" as="sourcePoint" />
          </mxGeometry>
        </mxCell>
        <mxCell id="gJN-mxGq6mvan0Lc4Zg4-18" value="" style="html=1;points=[];perimeter=orthogonalPerimeter;rounded=0;shadow=0;comic=0;labelBackgroundColor=none;strokeColor=#000000;strokeWidth=1;fillColor=#FFFFFF;fontFamily=Verdana;fontSize=12;fontColor=#000000;align=center;" vertex="1" parent="1">
          <mxGeometry x="2375" y="440" width="10" height="30" as="geometry" />
        </mxCell>
        <mxCell id="gJN-mxGq6mvan0Lc4Zg4-19" value="dispatch" style="html=1;verticalAlign=bottom;endArrow=block;entryX=0;entryY=0;labelBackgroundColor=none;fontFamily=Verdana;fontSize=12;" edge="1" parent="1" source="gJN-mxGq6mvan0Lc4Zg4-16" target="gJN-mxGq6mvan0Lc4Zg4-18">
          <mxGeometry relative="1" as="geometry">
            <mxPoint x="2300" y="320" as="sourcePoint" />
          </mxGeometry>
        </mxCell>
        <mxCell id="gJN-mxGq6mvan0Lc4Zg4-20" value="return" style="html=1;verticalAlign=bottom;endArrow=open;dashed=1;endSize=8;exitX=0;exitY=0.95;labelBackgroundColor=none;fontFamily=Verdana;fontSize=12;" edge="1" parent="1" source="gJN-mxGq6mvan0Lc4Zg4-18" target="gJN-mxGq6mvan0Lc4Zg4-16">
          <mxGeometry relative="1" as="geometry">
            <mxPoint x="2300" y="396" as="targetPoint" />
          </mxGeometry>
        </mxCell>
        <mxCell id="gJN-mxGq6mvan0Lc4Zg4-21" value="" style="html=1;points=[];perimeter=orthogonalPerimeter;rounded=0;shadow=0;comic=0;labelBackgroundColor=none;strokeWidth=1;fontFamily=Verdana;fontSize=12;align=center;" vertex="1" parent="1">
          <mxGeometry x="2240" y="530" width="10" height="60" as="geometry" />
        </mxCell>
        <mxCell id="gJN-mxGq6mvan0Lc4Zg4-22" value="dispatch" style="html=1;verticalAlign=bottom;endArrow=block;entryX=0;entryY=0;labelBackgroundColor=none;fontFamily=Verdana;fontSize=12;edgeStyle=elbowEdgeStyle;elbow=vertical;" edge="1" parent="1" source="gJN-mxGq6mvan0Lc4Zg4-29" target="gJN-mxGq6mvan0Lc4Zg4-21">
          <mxGeometry relative="1" as="geometry">
            <mxPoint x="2170" y="530" as="sourcePoint" />
          </mxGeometry>
        </mxCell>
        <mxCell id="gJN-mxGq6mvan0Lc4Zg4-23" value="return" style="html=1;verticalAlign=bottom;endArrow=open;dashed=1;endSize=8;labelBackgroundColor=none;fontFamily=Verdana;fontSize=12;edgeStyle=elbowEdgeStyle;elbow=vertical;" edge="1" parent="1" source="gJN-mxGq6mvan0Lc4Zg4-21" target="gJN-mxGq6mvan0Lc4Zg4-10">
          <mxGeometry relative="1" as="geometry">
            <mxPoint x="2170" y="606" as="targetPoint" />
            <Array as="points">
              <mxPoint x="1940" y="580" />
            </Array>
          </mxGeometry>
        </mxCell>
        <mxCell id="gJN-mxGq6mvan0Lc4Zg4-24" value="dispatch" style="html=1;verticalAlign=bottom;endArrow=block;entryX=0;entryY=0;labelBackgroundColor=none;fontFamily=Verdana;fontSize=12;edgeStyle=elbowEdgeStyle;elbow=vertical;" edge="1" parent="1" source="gJN-mxGq6mvan0Lc4Zg4-10" target="gJN-mxGq6mvan0Lc4Zg4-2">
          <mxGeometry relative="1" as="geometry">
            <mxPoint x="1590" y="170" as="sourcePoint" />
          </mxGeometry>
        </mxCell>
        <mxCell id="gJN-mxGq6mvan0Lc4Zg4-25" value="dispatch" style="html=1;verticalAlign=bottom;endArrow=block;entryX=0;entryY=0;labelBackgroundColor=none;fontFamily=Verdana;fontSize=12;edgeStyle=elbowEdgeStyle;elbow=vertical;" edge="1" parent="1" source="gJN-mxGq6mvan0Lc4Zg4-2" target="gJN-mxGq6mvan0Lc4Zg4-4">
          <mxGeometry relative="1" as="geometry">
            <mxPoint x="1740" y="180" as="sourcePoint" />
          </mxGeometry>
        </mxCell>
        <mxCell id="gJN-mxGq6mvan0Lc4Zg4-26" value="" style="html=1;points=[];perimeter=orthogonalPerimeter;rounded=0;shadow=0;comic=0;labelBackgroundColor=none;strokeWidth=1;fontFamily=Verdana;fontSize=12;align=center;" vertex="1" parent="1">
          <mxGeometry x="1960" y="280" width="10" height="70" as="geometry" />
        </mxCell>
        <mxCell id="gJN-mxGq6mvan0Lc4Zg4-27" value="dispatch" style="html=1;verticalAlign=bottom;endArrow=block;labelBackgroundColor=none;fontFamily=Verdana;fontSize=12;elbow=vertical;edgeStyle=orthogonalEdgeStyle;curved=1;entryX=1;entryY=0.286;entryPerimeter=0;exitX=1.038;exitY=0.345;exitPerimeter=0;" edge="1" parent="1" source="gJN-mxGq6mvan0Lc4Zg4-11" target="gJN-mxGq6mvan0Lc4Zg4-26">
          <mxGeometry relative="1" as="geometry">
            <mxPoint x="1835" y="210" as="sourcePoint" />
            <mxPoint x="1965" y="210" as="targetPoint" />
            <Array as="points">
              <mxPoint x="2020" y="262" />
              <mxPoint x="2020" y="300" />
            </Array>
          </mxGeometry>
        </mxCell>
        <mxCell id="gJN-mxGq6mvan0Lc4Zg4-28" value="dispatch" style="html=1;verticalAlign=bottom;endArrow=block;labelBackgroundColor=none;fontFamily=Verdana;fontSize=12;elbow=vertical;edgeStyle=orthogonalEdgeStyle;curved=1;exitX=1.066;exitY=0.713;exitPerimeter=0;" edge="1" parent="1" source="gJN-mxGq6mvan0Lc4Zg4-26">
          <mxGeometry relative="1" as="geometry">
            <mxPoint x="1980.3333333333333" y="330" as="sourcePoint" />
            <mxPoint x="1965" y="369" as="targetPoint" />
            <Array as="points">
              <mxPoint x="2020" y="330" />
              <mxPoint x="2020" y="369" />
            </Array>
          </mxGeometry>
        </mxCell>
        <mxCell id="gJN-mxGq6mvan0Lc4Zg4-29" value="" style="html=1;points=[];perimeter=orthogonalPerimeter;rounded=0;shadow=0;comic=0;labelBackgroundColor=none;strokeWidth=1;fontFamily=Verdana;fontSize=12;align=center;" vertex="1" parent="1">
          <mxGeometry x="1960" y="500" width="10" height="40" as="geometry" />
        </mxCell>
        <mxCell id="gJN-mxGq6mvan0Lc4Zg4-30" value="dispatch" style="html=1;verticalAlign=bottom;endArrow=block;labelBackgroundColor=none;fontFamily=Verdana;fontSize=12;elbow=vertical;edgeStyle=orthogonalEdgeStyle;curved=1;entryX=1;entryY=0.286;entryPerimeter=0;exitX=1.038;exitY=0.345;exitPerimeter=0;" edge="1" parent="1">
          <mxGeometry relative="1" as="geometry">
            <mxPoint x="1965.3333333333335" y="481" as="sourcePoint" />
            <mxPoint x="1970.3333333333335" y="519.3333333333334" as="targetPoint" />
            <Array as="points">
              <mxPoint x="2020" y="481" />
              <mxPoint x="2020" y="519" />
            </Array>
          </mxGeometry>
        </mxCell>
        <mxCell id="gJN-mxGq6mvan0Lc4Zg4-31" value="Note" style="shape=note;whiteSpace=wrap;html=1;size=14;verticalAlign=top;align=left;spacingTop=-6;rounded=0;shadow=0;comic=0;labelBackgroundColor=none;strokeWidth=1;fontFamily=Verdana;fontSize=12" vertex="1" parent="1">
          <mxGeometry x="1470" y="10" width="100" height="35" as="geometry" />
        </mxCell>
        <mxCell id="gJN-mxGq6mvan0Lc4Zg4-32" value="Note" style="shape=note;whiteSpace=wrap;html=1;size=14;verticalAlign=top;align=left;spacingTop=-6;rounded=0;shadow=0;comic=0;labelBackgroundColor=none;strokeWidth=1;fontFamily=Verdana;fontSize=12" vertex="1" parent="1">
          <mxGeometry x="1610" y="10" width="100" height="35" as="geometry" />
        </mxCell>
        <mxCell id="gJN-mxGq6mvan0Lc4Zg4-33" value="Note" style="shape=note;whiteSpace=wrap;html=1;size=14;verticalAlign=top;align=left;spacingTop=-6;rounded=0;shadow=0;comic=0;labelBackgroundColor=none;strokeWidth=1;fontFamily=Verdana;fontSize=12" vertex="1" parent="1">
          <mxGeometry x="1770" y="10" width="100" height="35" as="geometry" />
        </mxCell>
        <mxCell id="gJN-mxGq6mvan0Lc4Zg4-34" value="Note" style="shape=note;whiteSpace=wrap;html=1;size=14;verticalAlign=top;align=left;spacingTop=-6;rounded=0;shadow=0;comic=0;labelBackgroundColor=none;strokeWidth=1;fontFamily=Verdana;fontSize=12" vertex="1" parent="1">
          <mxGeometry x="1910" y="10" width="100" height="35" as="geometry" />
        </mxCell>
        <mxCell id="gJN-mxGq6mvan0Lc4Zg4-35" value="Note" style="shape=note;whiteSpace=wrap;html=1;size=14;verticalAlign=top;align=left;spacingTop=-6;rounded=0;shadow=0;comic=0;labelBackgroundColor=none;strokeWidth=1;fontFamily=Verdana;fontSize=12" vertex="1" parent="1">
          <mxGeometry x="2050" y="10" width="100" height="35" as="geometry" />
        </mxCell>
        <mxCell id="gJN-mxGq6mvan0Lc4Zg4-36" value="Note" style="shape=note;whiteSpace=wrap;html=1;size=14;verticalAlign=top;align=left;spacingTop=-6;rounded=0;shadow=0;comic=0;labelBackgroundColor=none;strokeWidth=1;fontFamily=Verdana;fontSize=12" vertex="1" parent="1">
          <mxGeometry x="2190" y="10" width="100" height="35" as="geometry" />
        </mxCell>
        <mxCell id="gJN-mxGq6mvan0Lc4Zg4-37" value="Note" style="shape=note;whiteSpace=wrap;html=1;size=14;verticalAlign=top;align=left;spacingTop=-6;rounded=0;shadow=0;comic=0;labelBackgroundColor=none;strokeWidth=1;fontFamily=Verdana;fontSize=12" vertex="1" parent="1">
          <mxGeometry x="2330" y="10" width="100" height="35" as="geometry" />
        </mxCell>
        <mxCell id="gJN-mxGq6mvan0Lc4Zg4-38" value="&lt;h1&gt;Начальник служби РАО&lt;/h1&gt;" style="text;html=1;strokeColor=none;fillColor=none;spacing=5;spacingTop=-20;whiteSpace=wrap;overflow=hidden;rounded=0;" vertex="1" parent="1">
          <mxGeometry x="30" y="-110" width="190" height="120" as="geometry" />
        </mxCell>
        <mxCell id="7baba1c4bc27f4b0-27" value="повернутися" style="html=1;verticalAlign=bottom;endArrow=open;dashed=1;endSize=8;labelBackgroundColor=none;fontFamily=Verdana;fontSize=12;" parent="1" edge="1">
          <mxGeometry relative="1" as="geometry">
            <mxPoint x="154.32352941176464" y="234.7" as="targetPoint" />
            <mxPoint x="585" y="234.7" as="sourcePoint" />
          </mxGeometry>
        </mxCell>
        <mxCell id="gJN-mxGq6mvan0Lc4Zg4-48" value="повернутися" style="html=1;verticalAlign=bottom;endArrow=open;dashed=1;endSize=8;labelBackgroundColor=none;fontFamily=Verdana;fontSize=12;" edge="1" parent="1">
          <mxGeometry x="-0.6718" y="20" relative="1" as="geometry">
            <mxPoint x="150.00352941176465" y="320" as="targetPoint" />
            <mxPoint x="580.68" y="320" as="sourcePoint" />
            <mxPoint as="offset" />
          </mxGeometry>
        </mxCell>
        <mxCell id="gJN-mxGq6mvan0Lc4Zg4-54" value="надіслати &lt;br&gt;наряд" style="html=1;verticalAlign=bottom;endArrow=block;labelBackgroundColor=none;fontFamily=Verdana;fontSize=12;edgeStyle=elbowEdgeStyle;elbow=vertical;align=left;" edge="1" parent="1">
          <mxGeometry x="-0.6154" relative="1" as="geometry">
            <mxPoint x="455" y="380" as="sourcePoint" />
            <Array as="points">
              <mxPoint x="460" y="380" />
            </Array>
            <mxPoint x="585" y="380" as="targetPoint" />
            <mxPoint as="offset" />
          </mxGeometry>
        </mxCell>
        <mxCell id="gJN-mxGq6mvan0Lc4Zg4-55" value="повернутися" style="html=1;verticalAlign=bottom;endArrow=open;dashed=1;endSize=8;labelBackgroundColor=none;fontFamily=Verdana;fontSize=12;" edge="1" parent="1">
          <mxGeometry x="-0.6718" y="20" relative="1" as="geometry">
            <mxPoint x="150.00352941176465" y="420" as="targetPoint" />
            <mxPoint x="580.68" y="420" as="sourcePoint" />
            <mxPoint as="offset" />
          </mxGeometry>
        </mxCell>
        <mxCell id="gJN-mxGq6mvan0Lc4Zg4-45" value="надіслати &lt;br&gt;запит" style="html=1;verticalAlign=bottom;endArrow=block;labelBackgroundColor=none;fontFamily=Verdana;fontSize=12;edgeStyle=elbowEdgeStyle;elbow=vertical;align=left;" edge="1" parent="1">
          <mxGeometry x="-0.6154" relative="1" as="geometry">
            <mxPoint x="455" y="290" as="sourcePoint" />
            <Array as="points">
              <mxPoint x="460" y="290" />
            </Array>
            <mxPoint x="585" y="290" as="targetPoint" />
            <mxPoint as="offset" />
          </mxGeometry>
        </mxCell>
      </root>
    </mxGraphModel>
  </diagram>
</mxfile>
